<svg viewBox="0 0 512 512" width="64" height="64" xmlns="http://www.w3.org/2000/svg">
  <defs>
    <linearGradient id="f" x1="48" y1="32" x2="464" y2="480" gradientUnits="userSpaceOnUse">
      <stop offset="0" stop-color="#7C6BF5"/>
      <stop offset="1" stop-color="#4A35C4"/>
    </linearGradient>
  </defs>
  <rect width="512" height="512" rx="114" fill="url(#f)"/>
  <g fill="#ffffff" fill-opacity="0.30">
    <rect x="122" y="300" width="72" height="128" rx="22"/>
    <rect x="220" y="300" width="72" height="128" rx="22"/>
    <rect x="318" y="300" width="72" height="128" rx="22"/>
  </g>
  <path d="M214 242 L256 276 L298 242" fill="none" stroke="#ffffff" stroke-width="20" stroke-linecap="round" stroke-linejoin="round"/>
  <rect x="180" y="92" width="152" height="104" rx="24" fill="#ffffff"/>
  <rect x="206" y="128" width="92" height="16" rx="8" fill="#6d5dfb"/>
  <rect x="206" y="160" width="58" height="16" rx="8" fill="#6d5dfb" fill-opacity="0.55"/>
  <path d="M360 58 c5.6 21 8.4 23.8 28 28 c-19.6 4.2 -22.4 7 -28 28 c-5.6 -21 -8.4 -23.8 -28 -28 c19.6 -4.2 22.4 -7 28 -28 Z" fill="#ffffff"/>
</svg>
